<svg xmlns="http://www.w3.org/2000/svg" viewBox="0 0 300 72">
  <rect x="0" y="8" width="56" height="56" rx="16" fill="#FF5A35"/>
  <path d="M28 14C20.3 14 14 20.3 14 28c0 8.8 7.2 14.8 12 23.1.4.7 1.1 1 1.8 1 .7 0 1.4-.3 1.8-1C34.4 42.8 42 36.8 42 28c0-7.7-6.3-14-14-14z" fill="white"/>
  <circle cx="28" cy="28" r="8.8" fill="#FF5A35"/>
  <path d="M22 32.1h12" stroke="white" stroke-width="2.1" stroke-linecap="round"/>
  <path d="M23.7 32.1c0-2.9 1.9-5.1 4.3-5.1 2.4 0 4.3 2.2 4.3 5.1" stroke="white" stroke-width="2.1" stroke-linecap="round" fill="none"/>
  <circle cx="28" cy="25.3" r="1.3" fill="white"/>
  <text x="70" y="47" font-family="Poppins, Nunito Sans, system-ui, sans-serif" font-size="34" font-weight="700" letter-spacing="-0.4">
    <tspan fill="#1F2328">Taste</tspan><tspan fill="#FF5A35">Spot</tspan>
  </text>
</svg>
