<svg xmlns="http://www.w3.org/2000/svg" viewBox="0 0 1024 1024" width="1024" height="1024">
  <!-- Transparent background — only the white shapes -->
  <defs>
    <filter id="glow" x="-20%" y="-20%" width="140%" height="140%">
      <feDropShadow dx="0" dy="6" stdDeviation="14" flood-color="rgba(0,0,0,0.18)"/>
    </filter>
  </defs>
  <g fill="white" filter="url(#glow)">
    <rect x="382" y="158" width="22" height="200" rx="11"/>
    <rect x="416" y="158" width="22" height="200" rx="11"/>
    <rect x="450" y="158" width="22" height="200" rx="11"/>
    <rect x="382" y="335" width="90" height="28" rx="14"/>
    <rect x="409" y="363" width="36" height="64" rx="18"/>
    <rect x="405" y="427" width="44" height="315" rx="22"/>
    <ellipse cx="597" cy="246" rx="44" ry="62"/>
    <path d="M 573,292 C 570,335 576,365 579,395 L 617,395 C 620,365 626,335 623,292 Z"/>
    <rect x="579" y="389" width="36" height="353" rx="18"/>
  </g>
  <circle cx="512" cy="840" r="36" fill="white" opacity="0.90" filter="url(#glow)"/>
</svg>
